<?xml version="1.0" encoding="utf-8"?>
<!-- Generator: Adobe Illustrator 27.5.0, SVG Export Plug-In . SVG Version: 6.00 Build 0)  -->
<svg version="1.1" xmlns="http://www.w3.org/2000/svg" xmlns:xlink="http://www.w3.org/1999/xlink" x="0px" y="0px"
	 viewBox="0 0 500 500" style="enable-background:new 0 0 500 500;" xml:space="preserve">
<g id="BACKGROUND">
</g>
<g id="OBJECTS">
	<g>
		<ellipse transform="matrix(0.7071 -0.7071 0.7071 0.7071 -90.0858 112.5536)" cx="90.821" cy="165.02" rx="37.022" ry="37.022"/>
		<g>
			<path style="fill:#FFFFFF;" d="M105.747,149.01H75.896c-3.362,0-6.087,2.725-6.087,6.087v19.845c0,3.362,2.725,6.087,6.087,6.087
				h29.851c3.362,0,6.087-2.725,6.087-6.087v-19.845C111.834,151.736,109.109,149.01,105.747,149.01z"/>
			<polygon points="98.393,165.52 86.285,158.53 86.285,172.511 			"/>
		</g>
	</g>
	<g>
		<ellipse transform="matrix(0.2298 -0.9732 0.9732 0.2298 -8.9127 318.7783)" cx="196.94" cy="165.02" rx="37.022" ry="37.022"/>
		<g>
			<g>
				<path style="fill:#FFFFFF;" d="M208.697,185.032h-23.514c-4.552,0-8.255-3.703-8.255-8.255v-23.514
					c0-4.552,3.703-8.255,8.255-8.255h23.514c4.552,0,8.255,3.703,8.255,8.255v23.514
					C216.952,181.329,213.249,185.032,208.697,185.032z M185.183,149.01c-2.345,0-4.253,1.908-4.253,4.253v23.514
					c0,2.345,1.908,4.253,4.253,4.253h23.514c2.345,0,4.253-1.908,4.253-4.253v-23.514c0-2.345-1.908-4.253-4.253-4.253H185.183z"/>
			</g>
			<g>
				<path style="fill:#FFFFFF;" d="M196.94,175.026c-5.517,0-10.006-4.488-10.006-10.006s4.489-10.006,10.006-10.006
					c5.518,0,10.006,4.488,10.006,10.006S202.458,175.026,196.94,175.026z M196.94,159.016c-3.311,0-6.004,2.693-6.004,6.004
					c0,3.311,2.693,6.004,6.004,6.004c3.311,0,6.004-2.693,6.004-6.004C202.944,161.709,200.251,159.016,196.94,159.016z"/>
			</g>
			<circle style="fill:#FFFFFF;" cx="206.946" cy="155.014" r="2.001"/>
		</g>
	</g>
	<g>
		<ellipse transform="matrix(0.7071 -0.7071 0.7071 0.7071 -27.9227 262.6287)" cx="303.06" cy="165.02" rx="37.022" ry="37.022"/>
		<g>
			<g>
				<path style="fill:#FFFFFF;" d="M279.387,189.16l3.298-12.308c-2.216-3.687-3.383-7.893-3.383-12.213
					c0-13.1,10.658-23.758,23.758-23.758c13.1,0,23.758,10.658,23.758,23.758c0,13.1-10.658,23.758-23.758,23.758
					c-3.798,0-7.556-0.916-10.914-2.656L279.387,189.16z M292.579,182.111l0.6,0.334c3.009,1.674,6.425,2.558,9.88,2.558
					c11.228,0,20.364-9.135,20.364-20.364c0-11.228-9.135-20.364-20.364-20.364c-11.229,0-20.364,9.135-20.364,20.364
					c0,3.921,1.122,7.732,3.245,11.021l0.408,0.633l-2.162,8.068L292.579,182.111z"/>
			</g>
			<path style="fill:#FFFFFF;" d="M310.641,168.283c-0.87-0.546-2.023-0.366-2.614,0.455c-0.382,0.541-0.763,1.082-1.145,1.623
				c-3.692-2.605-6.911-5.824-9.516-9.516c0.541-0.382,1.082-0.763,1.623-1.145c0.821-0.591,1.001-1.744,0.455-2.614
				c-0.734-1.166-1.404-2.379-2.003-3.633c-0.447-0.934-1.524-1.41-2.462-1.033c-0.735,0.304-1.47,0.609-2.205,0.913
				c-1.975,0.768-2.758,3.476-1.441,5.861c3.993,7.24,9.958,13.205,17.198,17.198c2.385,1.318,5.093,0.534,5.861-1.441
				c0.305-0.735,0.609-1.47,0.913-2.205c0.378-0.938-0.099-2.015-1.032-2.462C313.02,169.687,311.807,169.018,310.641,168.283z"/>
		</g>
	</g>
	<g>
		<ellipse transform="matrix(0.2337 -0.9723 0.9723 0.2337 153.1028 524.3026)" cx="409.179" cy="165.02" rx="37.022" ry="37.022"/>
		<path style="fill:#FFFFFF;" d="M424.609,171.017c-0.461-0.811-0.835-1.783-1.137-2.842c-0.261-0.915,0.209-1.885,1.068-2.226
			l2.859-1.132c0.996-0.394,1.604-1.521,1.276-2.574c-0.349-1.122-1.527-1.699-2.576-1.284l-1.414,0.56
			c-1.119,0.443-2.333-0.376-2.394-1.617c-0.125-2.586-0.055-4.59-0.036-4.876c0.556-8.253-5.855-13.57-13.077-13.57
			c-7.222,0-13.633,5.317-13.077,13.57c0.019,0.286,0.089,2.289-0.036,4.876c-0.06,1.241-1.275,2.06-2.394,1.617l-1.414-0.56
			c-1.048-0.415-2.227,0.161-2.576,1.284c-0.327,1.053,0.281,2.18,1.276,2.574l2.859,1.132c0.859,0.34,1.329,1.311,1.068,2.226
			c-0.302,1.059-0.676,2.031-1.137,2.842c-3.345,5.885-9.585,7.859-9.585,7.859s1.925,2.109,6.29,2.109
			c1.523,0,0.667,2.771,2.439,3.961c2.086,1.401,6.587-0.333,8.781,0.959c2.545,1.499,4.813,2.635,7.506,2.678
			c2.693-0.044,4.961-1.18,7.506-2.678c2.194-1.292,6.695,0.442,8.781-0.959c1.772-1.19,0.916-3.961,2.439-3.961
			c4.364,0,6.29-2.109,6.29-2.109S427.954,176.902,424.609,171.017z"/>
	</g>
	<g>
		<ellipse transform="matrix(0.2298 -0.9732 0.9732 0.2298 -195.9858 298.8619)" cx="90.821" cy="273.25" rx="37.022" ry="37.022"/>
		<g>
			<path style="fill:#FFFFFF;" d="M113.687,277.304c0.241-1.343,0.373-2.724,0.373-4.136c0-12.88-10.441-23.321-23.321-23.321
				c-1.428,0-2.824,0.135-4.181,0.381c-2.161-1.468-4.769-2.326-7.578-2.326c-7.46,0-13.507,6.047-13.507,13.507
				c0,2.809,0.859,5.417,2.326,7.578c-0.246,1.357-0.381,2.753-0.381,4.181c0,12.88,10.441,23.321,23.321,23.321
				c1.412,0,2.793-0.133,4.136-0.373c2.202,1.559,4.885,2.483,7.788,2.483c7.46,0,13.507-6.047,13.507-13.507
				C116.17,282.189,115.245,279.506,113.687,277.304z"/>
			<g>
				<path d="M80.572,272.701c-0.957-0.758-1.724-1.629-2.264-2.659c-0.541-1.03-0.811-2.287-0.811-3.774
					c0-2.869,1.22-5.166,3.662-6.889c2.441-1.722,5.869-2.833,10.261-2.583c7.835,0.446,10.747,4.128,11.352,5.831
					c1.48,4.17-3.077,5.165-4.506,4.094c-2.57-1.928-3.792-3.338-6.237-3.943c-3.249-0.803-5.115,0.362-5.806,0.922
					c-1.53,1.242-1.408,2.839-0.582,3.714c2.061,2.184,7.231,2.955,13.481,5.077c3.742,1.27,5.023,4.235,5.023,6.937
					c0,2.871-1.079,5.201-3.5,7.076c-6.721,5.205-19.167,3.969-22.217-2.543c-1.846-3.942,1.898-5.169,2.72-5.028
					c3.517,0.605,2.715,4.346,9.314,5.275c1.808,0.255,5.935-0.824,6.347-2.638c0.15-0.659,1.115-3.279-5.988-5.11
					C90.821,276.461,83.429,274.963,80.572,272.701z"/>
			</g>
		</g>
	</g>
	<g>
		<ellipse transform="matrix(0.7071 -0.7071 0.7071 0.7071 -135.5347 219.2911)" cx="196.94" cy="273.25" rx="37.022" ry="37.022"/>
		<path style="fill:#FFFFFF;" d="M203.796,257.148h5.652v-9.266h-5.652c-7.336,0-13.305,5.954-13.305,13.272v5.817h-6.058v8.553
			h6.058v23.094h9.266v-23.094h9.266v-8.553h-9.266v-5.817C199.757,258.945,201.569,257.148,203.796,257.148z"/>
	</g>
	<g>
		<ellipse transform="matrix(0.2334 -0.9724 0.9724 0.2334 -33.3893 504.1465)" cx="303.06" cy="273.25" rx="37.022" ry="37.022"/>
		<g>
			<path style="fill:#FFFFFF;" d="M303.06,248.569c-13.631,0-24.681,11.05-24.681,24.682c0,4.994,1.488,9.638,4.038,13.523
				l-2.845,10.617l10.889-2.918c3.689,2.195,7.996,3.459,12.6,3.459c13.631,0,24.682-11.05,24.682-24.681
				C327.741,259.619,316.691,248.569,303.06,248.569z"/>
			<polygon points="285.498,280.251 300.305,266.249 307.279,274.402 320.621,266.443 305.349,280.246 298.624,272.693 			"/>
		</g>
	</g>
	<g>
		<ellipse transform="matrix(0.7071 -0.7071 0.7071 0.7071 -73.3715 369.3662)" cx="409.179" cy="273.25" rx="37.022" ry="37.022"/>
		<g>
			
				<ellipse transform="matrix(0.7071 -0.7071 0.7071 0.7071 -73.0018 369.2131)" style="fill:#FFFFFF;" cx="409.179" cy="272.727" rx="27.016" ry="27.016"/>
			<path d="M427.824,269.014c-0.679-12.714-13.076-20.571-24.887-15.989c-11.77,4.567-16.345,19.265-8.613,29.456
				c1.11,1.463,3.177,0.256,2.451-1.433c-3.195-7.433-2.698-16.148,5.199-20.675c7.031-4.031,17.054-1.393,18.979,7.025
				c1.076,4.706,0.25,11.591-3.817,14.586c-4.172,3.072-7.158-0.015-8.119-3.688c0.589-3.44,1.037-6.892,1.261-10.334
				c0.216-3.326-4.427-4.214-6.015-1.629c-1.986,3.233-2.723,7.949-2.046,12.329c-1.299,6.068-2.032,12.269-3.014,18.434
				c-0.606,3.803,2.846,5.296,4.003,1.441c1.043-3.477,2.155-7.526,3.523-11.689c1.385,1.106,2.727,2.261,5.849,2.621
				C421.339,290.479,428.354,278.931,427.824,269.014z"/>
		</g>
	</g>
	<g>
		<ellipse transform="matrix(0.2298 -0.9732 0.9732 0.2298 -308.4701 387.884)" cx="90.821" cy="388.826" rx="37.022" ry="37.022"/>
		<g>
			<path style="fill:#FFFFFF;" d="M104.334,372.796c-4.955-0.967-9.755,2.266-10.722,7.221c-0.484,2.481,0.085,4.923,1.396,6.865
				c-0.418,1.135-0.852,2.181-1.318,3.09c-0.834,1.672-1.701,2.943-2.757,3.998c-1.034,1.084-2.401,1.898-3.996,2.534
				c-1.595,0.624-3.415,1.496-5.123,1.87c-6.632,1.449-15.257-0.555-15.257-0.555s2.466,5.425,11.959,8.754
				c4.774,1.674,12.083,2.712,19.357-0.493c12.568-5.539,13.615-21.198,13.701-22.69
				C111.861,378.409,109.246,373.754,104.334,372.796z"/>
			<path style="fill:#FFFFFF;" d="M95.739,386.663c-0.163-1.275-0.758-2.471-2.046-3.574c-4.226-3.66-8.282-7.006-11.076-9.872
				c-0.735-0.703-1.31-1.395-1.897-2.006c-0.541-0.649-1.008-1.209-1.389-1.666c-0.709-0.969-1.17-1.554-1.17-1.554
				s-3.22,7.001,0.522,13.05c-1.953-0.756-4.326-4.439-4.326-4.439s-1.014,5.159,0.285,8.255c0.671,1.599,0.917,2.763,2.909,4.457
				c-2.609-0.746-4.129-2.18-4.129-2.18s-0.729,3.096,1.221,6.057c2.013,3.057,3.352,3.939,5.626,5.194
				c2.31,1.275,5.206,2.059,8.085,1.945c0.857-0.041,1.588-0.274,2.188-0.601c0.597-0.334,1.033-0.837,1.356-1.365
				c0.611-1.025,0.74-2.268,0.54-3.47c0.249-0.302,0.468-0.628,0.646-0.975c0.345-0.672,0.558-1.405,0.62-2.146
				c0.538-0.378,0.973-0.869,1.294-1.424C95.641,389.24,95.892,387.9,95.739,386.663z"/>
			<path style="fill:#FFFFFF;" d="M114.606,380.251c-0.3,0.028-0.72,0.05-1.192,0.029c-0.469-0.018-0.948-0.087-1.489-0.19
				c0.563-0.34,1.011-0.748,1.326-1.146c0.397-0.495,0.6-0.964,0.704-1.288c0.101-0.328,0.118-0.514,0.118-0.514
				s-0.171,0.087-0.461,0.213c-0.292,0.124-0.705,0.275-1.191,0.387c-0.991,0.244-2.172,0.27-3.529,0.24
				c-0.8-0.017-1.359,0.601-1.494,1.327c-0.119,0.628,0.194,1.372,1.091,1.553c-0.241,0.841,0.176,1.904,1.295,1.917
				c0.761,0.003,1.474-0.056,2.241-0.234c0.761-0.174,1.441-0.526,1.895-0.893c0.467-0.368,0.757-0.744,0.929-1.014
				c0.172-0.272,0.237-0.438,0.237-0.438S114.914,380.218,114.606,380.251z"/>
		</g>
	</g>
	<g>
		
			<ellipse transform="matrix(0.7071 -0.7071 0.7071 0.7071 -217.2592 253.1425)" cx="196.94" cy="388.826" rx="37.022" ry="37.022"/>
		<path style="fill:#FFFFFF;" d="M207.033,404.072l-2.35,1.609c-1.035,0.707-2.544,0.511-3.562-0.904l0-22.259h8.873v-9.68h-8.873
			V361.31h-9.259l-0.54,5.068c-0.391,3.673-3.49,6.46-7.185,6.46h-2.376v9.68h7.406v20.28c0,9.279,9.25,15.99,17.924,12.692
			c3.861-1.468,5.029-3.987,5.029-3.987L207.033,404.072z"/>
	</g>
	<g>
		
			<ellipse transform="matrix(0.2334 -0.9724 0.9724 0.2334 -145.7719 592.7416)" cx="303.06" cy="388.826" rx="37.022" ry="37.022"/>
		<g>
			<g>
				<path style="fill:#FFFFFF;" d="M281.739,407.432h8.917v-28.121h-8.917V407.432z"/>
				<path style="fill:#FFFFFF;" d="M296.952,378.488h8.887l0.03,3.782h0.101c2.015-2.193,4.004-3.782,7.405-3.782
					c4.735,0,11.335,2.577,11.335,10.415v18.529h-8.917v-15.897c0-2.795-1.763-5.481-4.635-5.481c-2.67,0-5.29,2.686-5.29,5.481
					v15.897h-8.916V378.488z"/>
			</g>
			<circle style="fill:#FFFFFF;" cx="286.197" cy="372.334" r="4.788"/>
		</g>
	</g>
	<g>
		
			<ellipse transform="matrix(0.7071 -0.7071 0.7071 0.7071 -155.0961 403.2177)" cx="409.179" cy="388.826" rx="37.022" ry="37.022"/>
		<path style="fill:#FFFFFF;" d="M427.073,383.748c-2.137,0-3.869-1.732-3.869-3.869l0,0c0-6.811-5.521-12.332-12.332-12.332h-9.914
			c-7.479,0-13.542,6.063-13.542,13.542v15.96c0,7.212,5.846,13.058,13.058,13.058h17.41c7.212,0,13.058-5.846,13.058-13.058v-9.431
			C430.942,385.48,429.21,383.748,427.073,383.748z M401.136,377.279h7.98c1.703,0,3.083,1.38,3.083,3.083s-1.38,3.083-3.083,3.083
			h-7.98c-1.703,0-3.083-1.38-3.083-3.083S399.433,377.279,401.136,377.279z M416.914,398.68h-15.778
			c-1.703,0-3.083-1.38-3.083-3.083s1.38-3.083,3.083-3.083h15.778c1.703,0,3.083,1.38,3.083,3.083S418.617,398.68,416.914,398.68z"
			/>
	</g>
	<g>
		<path d="M384.813,51.584H115.187c-11.839,0-21.437,9.597-21.437,21.437l0,0c0,11.839,9.597,21.437,21.437,21.437h269.626
			c11.839,0,21.437-9.597,21.437-21.437l0,0C406.249,61.181,396.652,51.584,384.813,51.584z"/>
		<text transform="matrix(1 0 0 1 118.585 82.0698)" style="fill:#FFFFFF; font-family:'Lato-Black'; font-size:24.7093px;">SOCIAL MEDIA LOGOS</text>
	</g>
</g>
<g id="DESIGNED_BY_FREEPIK">
	<g>
		<g id="XMLID_319_">
			<g id="XMLID_338_">
				<path id="XMLID_346_" d="M260.104,471.741c-0.432,0.443-0.803,0.931-1.108,1.453l-0.465-0.241
					c-0.067-0.298-0.349-0.503-0.659-0.466c-0.331,0.039-0.568,0.339-0.529,0.67c0.039,0.331,0.339,0.568,0.67,0.529
					c0.065-0.008,0.127-0.026,0.184-0.052l0.451,0.234c-0.251,0.554-0.433,1.139-0.539,1.744l0.747,0.132
					c0.23-1.306,0.85-2.507,1.792-3.473L260.104,471.741z"/>
				<path id="XMLID_345_" d="M265.592,469.439c-0.171,0-0.341,0.006-0.51,0.017l-0.074-0.626c0.188-0.149,0.296-0.389,0.266-0.645
					c-0.046-0.393-0.402-0.674-0.795-0.628c-0.393,0.046-0.674,0.402-0.628,0.795c0.03,0.254,0.189,0.461,0.404,0.564l0.074,0.624
					c-0.714,0.116-1.403,0.332-2.06,0.646l0.327,0.684c0.934-0.447,1.942-0.673,2.995-0.673c0.496,0,0.993,0.053,1.475,0.158
					l0.161-0.741C266.692,469.498,266.142,469.439,265.592,469.439z"/>
				<path id="XMLID_344_" d="M272.194,471.986c0.331-0.04,0.566-0.341,0.526-0.672c-0.04-0.331-0.341-0.566-0.672-0.526
					c-0.309,0.038-0.535,0.304-0.53,0.609l-0.416,0.363c-0.418-0.43-0.889-0.813-1.408-1.139l-0.404,0.641
					c1.134,0.715,2.021,1.726,2.563,2.925l0.691-0.313c-0.251-0.554-0.568-1.072-0.942-1.545l0.402-0.351
					C272.065,471.991,272.129,471.994,272.194,471.986z"/>
				<path id="XMLID_343_" d="M265.044,479.647c-0.386,0.023-0.775,0.035-1.157,0.035c-0.88,0-1.733-0.061-2.478-0.179
					c-0.39-0.062-0.846-0.155-1.27-0.292c1.046,1.861,3.069,3.125,5.388,3.125c2.855,0,5.262-1.916,5.95-4.504
					c-0.682,0.449-1.505,0.825-2.459,1.123C267.839,479.322,266.463,479.562,265.044,479.647z"/>
				<path id="XMLID_339_" d="M265.592,470.955c-3.352,0-6.08,2.666-6.08,5.944c0,0.426,0.046,0.849,0.137,1.261
					c0.673,0.483,2.706,0.89,5.348,0.731c2.879-0.173,5.297-0.957,6.672-2.158c-0.006-0.195-0.021-0.39-0.045-0.582
					C271.244,473.189,268.65,470.955,265.592,470.955z M263.432,477.47c-1.02,0-1.85-0.83-1.85-1.85c0-1.02,0.83-1.85,1.85-1.85
					c1.02,0,1.85,0.83,1.85,1.85C265.282,476.64,264.452,477.47,263.432,477.47z M268.17,476.561c-0.75,0-1.36-0.61-1.36-1.36
					s0.61-1.361,1.36-1.361c0.75,0,1.361,0.61,1.361,1.361S268.92,476.561,268.17,476.561z"/>
			</g>
			<path id="XMLID_336_" d="M281.595,472.822c-0.295-0.116-0.805-0.309-1.382-0.237c-0.551,0.068-0.844,0.34-0.844,1.007v0.866
				h2.228v1.717h-2.228v5.455h-1.932v-5.455h-1.34v-1.717h1.34v-0.888c0-1.68,0.896-2.783,2.568-2.783
				c0.643,0,1.157,0.122,1.59,0.308L281.595,472.822z"/>
			<path id="XMLID_334_" d="M286.298,476.154c-0.177-0.03-0.358-0.046-0.526-0.046c-0.896,0-1.51,0.548-1.51,1.613v3.908h-1.932
				v-7.172h1.873v0.785c0.451-0.674,1.14-0.977,2.021-0.977c0.414,0,0.848,0.128,1.094,0.337L286.298,476.154z"/>
			<path id="XMLID_331_" d="M293.965,478.032c0,0.222-0.015,0.489-0.037,0.651h-5.085c0.207,1.036,0.933,1.488,1.843,1.488
				c0.622,0,1.295-0.252,1.813-0.688l1.133,1.243c-0.814,0.748-1.85,1.088-3.057,1.088c-2.198,0-3.723-1.495-3.723-3.753
				c0-2.257,1.48-3.797,3.627-3.797C292.544,474.265,293.958,475.797,293.965,478.032z M288.851,477.366h3.175
				c-0.177-0.918-0.733-1.436-1.562-1.436C289.554,475.93,289.021,476.478,288.851,477.366z"/>
			<path id="XMLID_328_" d="M301.618,478.032c0,0.222-0.015,0.489-0.037,0.651h-5.085c0.207,1.036,0.933,1.488,1.843,1.488
				c0.622,0,1.295-0.252,1.814-0.688l1.132,1.243c-0.814,0.748-1.85,1.088-3.057,1.088c-2.198,0-3.723-1.495-3.723-3.753
				c0-2.257,1.48-3.797,3.627-3.797C300.197,474.265,301.611,475.797,301.618,478.032z M296.504,477.366h3.175
				c-0.178-0.918-0.733-1.436-1.562-1.436C297.207,475.93,296.674,476.478,296.504,477.366z"/>
			<path id="XMLID_325_" d="M309.964,478.04c0,2.154-1.495,3.775-3.471,3.775c-0.962,0-1.643-0.378-2.109-0.933v3.708h-1.924
				v-10.133h1.887v0.792c0.466-0.585,1.155-0.984,2.139-0.984C308.469,474.265,309.964,475.886,309.964,478.04z M304.287,478.04
				c0,1.132,0.747,1.976,1.843,1.976c1.14,0,1.85-0.881,1.85-1.976c0-1.095-0.71-1.976-1.85-1.976
				C305.035,476.064,304.287,476.907,304.287,478.04z"/>
			<path id="XMLID_322_" d="M313.068,472.111c0,0.696-0.54,1.229-1.236,1.229c-0.696,0-1.229-0.533-1.229-1.229
				c0-0.696,0.533-1.243,1.229-1.243C312.527,470.868,313.068,471.415,313.068,472.111z M312.809,481.629h-1.932v-7.172h1.932
				V481.629z"/>
			<path id="XMLID_320_" d="M316.032,477.011l2.701-2.554h2.368l-3.479,3.375l3.501,3.797h-2.376l-2.716-2.901v2.901H314.1v-10.658
				h1.932V477.011z"/>
		</g>
		<g>
			<path d="M184.412,481.564v-1.055c-0.527,0.718-1.391,1.23-2.387,1.23c-1.846,0-3.149-1.406-3.149-3.706
				c0-2.256,1.289-3.721,3.149-3.721c0.952,0,1.816,0.469,2.387,1.245v-3.765h1.099v9.77H184.412z M184.412,479.646v-3.208
				c-0.395-0.615-1.245-1.143-2.124-1.143c-1.421,0-2.27,1.172-2.27,2.739c0,1.567,0.85,2.724,2.27,2.724
				C183.168,480.759,184.017,480.261,184.412,479.646z"/>
			<path d="M186.932,478.02c0-2.051,1.465-3.706,3.486-3.706c2.139,0,3.398,1.67,3.398,3.794v0.279h-5.727
				c0.088,1.333,1.025,2.446,2.549,2.446c0.806,0,1.626-0.322,2.182-0.893l0.527,0.718c-0.703,0.703-1.655,1.084-2.812,1.084
				C188.441,481.74,186.932,480.232,186.932,478.02z M190.404,475.222c-1.509,0-2.256,1.274-2.314,2.358h4.643
				C192.718,476.525,192.015,475.222,190.404,475.222z"/>
			<path d="M194.607,480.627l0.571-0.791c0.469,0.542,1.362,1.011,2.329,1.011c1.084,0,1.67-0.513,1.67-1.216
				c0-1.714-4.38-0.659-4.38-3.281c0-1.098,0.952-2.036,2.636-2.036c1.201,0,2.051,0.454,2.622,1.026l-0.513,0.762
				c-0.424-0.513-1.201-0.894-2.109-0.894c-0.967,0-1.567,0.483-1.567,1.113c0,1.552,4.38,0.527,4.38,3.281
				c0,1.187-0.952,2.139-2.783,2.139C196.306,481.74,195.325,481.389,194.607,480.627z"/>
			<path d="M201.477,472.746c0-0.41,0.337-0.747,0.732-0.747c0.41,0,0.747,0.337,0.747,0.747c0,0.41-0.337,0.732-0.747,0.732
				C201.814,473.479,201.477,473.157,201.477,472.746z M201.667,481.564v-7.075h1.099v7.075H201.667z"/>
			<path d="M204.582,483.381l0.556-0.82c0.586,0.703,1.289,0.967,2.3,0.967c1.172,0,2.27-0.571,2.27-2.124v-1.011
				c-0.513,0.718-1.377,1.26-2.373,1.26c-1.845,0-3.149-1.377-3.149-3.662c0-2.27,1.289-3.677,3.149-3.677
				c0.952,0,1.802,0.469,2.373,1.245v-1.069h1.099v6.87c0,2.344-1.641,3.076-3.369,3.076
				C206.237,484.435,205.417,484.201,204.582,483.381z M209.709,479.528v-3.091c-0.381-0.615-1.23-1.143-2.109-1.143
				c-1.421,0-2.27,1.128-2.27,2.695c0,1.553,0.849,2.695,2.27,2.695C208.478,480.685,209.328,480.144,209.709,479.528z"/>
			<path d="M217.413,481.564v-4.629c0-1.245-0.63-1.64-1.582-1.64c-0.865,0-1.685,0.527-2.095,1.099v5.17h-1.099v-7.075h1.099v1.025
				c0.498-0.586,1.464-1.201,2.519-1.201c1.48,0,2.256,0.747,2.256,2.285v4.966H217.413z"/>
			<path d="M219.932,478.02c0-2.051,1.465-3.706,3.486-3.706c2.139,0,3.398,1.67,3.398,3.794v0.279h-5.727
				c0.088,1.333,1.025,2.446,2.549,2.446c0.806,0,1.626-0.322,2.183-0.893l0.527,0.718c-0.703,0.703-1.655,1.084-2.812,1.084
				C221.441,481.74,219.932,480.232,219.932,478.02z M223.404,475.222c-1.509,0-2.256,1.274-2.314,2.358h4.643
				C225.718,476.525,225.015,475.222,223.404,475.222z"/>
			<path d="M233.35,481.564v-1.055c-0.527,0.718-1.392,1.23-2.388,1.23c-1.846,0-3.149-1.406-3.149-3.706
				c0-2.256,1.289-3.721,3.149-3.721c0.952,0,1.817,0.469,2.388,1.245v-3.765h1.098v9.77H233.35z M233.35,479.646v-3.208
				c-0.396-0.615-1.245-1.143-2.124-1.143c-1.421,0-2.27,1.172-2.27,2.739c0,1.567,0.849,2.724,2.27,2.724
				C232.105,480.759,232.954,480.261,233.35,479.646z"/>
			<path d="M239.692,481.564v-9.77h1.098v3.765c0.572-0.776,1.421-1.245,2.388-1.245c1.845,0,3.149,1.465,3.149,3.721
				c0,2.299-1.304,3.706-3.149,3.706c-0.996,0-1.86-0.513-2.388-1.23v1.055H239.692z M242.9,480.759
				c1.436,0,2.285-1.157,2.285-2.724c0-1.568-0.85-2.739-2.285-2.739c-0.864,0-1.728,0.527-2.109,1.143v3.208
				C241.171,480.261,242.036,480.759,242.9,480.759z"/>
			<path d="M247.528,483.337c0.161,0.073,0.425,0.117,0.601,0.117c0.483,0,0.805-0.161,1.055-0.747l0.469-1.069l-2.959-7.148h1.187
				l2.358,5.801l2.344-5.801h1.201l-3.545,8.51c-0.425,1.025-1.143,1.421-2.08,1.435c-0.234,0-0.601-0.044-0.806-0.103
				L247.528,483.337z"/>
		</g>
	</g>
</g>
</svg>
